<?xml version="1.0" standalone="no"?>
<!DOCTYPE svg PUBLIC "-//W3C//DTD SVG 1.0//EN" "http://www.w3.org/TR/2001/REC-SVG-20010904/DTD/svg10.dtd">
<svg xmlns="http://www.w3.org/2000/svg" xmlns:xlink="http://www.w3.org/1999/xlink" id="body_1" width="400" height="300">

<g transform="matrix(0.65217394 0 0 0.65217394 49.999996 -0)">
	<g>
        <path d="M230 0C 102.974 0 0 102.975 0 230C 0 327.323 60.448 410.529 145.848 444.11902L145.848 444.11902L457.929 199C 442.79 86.635 346.512 0 230 0z" stroke="none" fill="#366796" fill-rule="nonzero" />
        <path d="M457.914 199.002L309.064 50.151993L71.884 370.15198L145.84799 444.11597C 171.911 454.367 200.297 460 230 460C 357.025 460 460 357.025 460 230C 460 219.486 459.28 209.142 457.914 199.002z" stroke="none" fill="#273B7A" fill-rule="nonzero" />
        <path d="M240 200.152L230 370.152L138.757 370.152L150.936 218.065L166.768 210.152L240 200.152" stroke="none" fill="#5488A8" fill-rule="nonzero" />
        <path d="M150.936 218.065L150.936 370.152L71.884 370.152L71.884 210.152L135.115 210.152L150.936 218.065" stroke="none" fill="#61A2B3" fill-rule="nonzero" />
        <path d="M166.768 257.631L135.115 257.631L135.115 210.152L150.948 210.152L158.858 200.152L166.768 210.152L166.768 257.631" stroke="none" fill="#C2FBFF" fill-rule="nonzero" />
        <path d="M388.116 210.152L388.116 370.152L296.873 370.152L309.052 218.065L324.885 210.152L388.116 210.152" stroke="none" fill="#5488A8" fill-rule="nonzero" />
        <path d="M309.052 218.065L309.052 370.152L230 370.152L230 200.152L293.232 210.152L309.052 218.065" stroke="none" fill="#61A2B3" fill-rule="nonzero" />
        <path d="M324.885 257.631L293.232 257.631L293.232 210.152L301.148 200.152L309.064 210.152L324.885 210.152L324.885 257.631" stroke="none" fill="#C2FBFF" fill-rule="nonzero" />
        <path d="M309.064 50.152L309.064 210.152L217.821 210.152L230 58.066L245.832 50.152L309.064 50.152" stroke="none" fill="#5488A8" fill-rule="nonzero" />
        <path d="M230 58.066L230 210.152L150.948 210.152L150.948 50.152L214.18 50.152L230 58.066" stroke="none" fill="#61A2B3" fill-rule="nonzero" />
        <path d="M214.18 50.152L245.833 50.152L245.833 97.631L214.18 97.631z" stroke="none" fill="#C2FBFF" fill-rule="nonzero" />
	</g>
	<g>
	</g>
	<g>
	</g>
	<g>
	</g>
	<g>
	</g>
	<g>
	</g>
	<g>
	</g>
	<g>
	</g>
	<g>
	</g>
	<g>
	</g>
	<g>
	</g>
	<g>
	</g>
	<g>
	</g>
	<g>
	</g>
	<g>
	</g>
	<g>
	</g>
</g>
</svg>